<?xml version="1.0" encoding="UTF-8" standalone="no"?>
<svg xmlns="http://www.w3.org/2000/svg" version="1.1" width="166" height="150" viewbox="0 0 166 150">
<title>undefined</title><path d="M83,0 L0,0 L0,75 L0,150 L83,150 L166,150 L166,75 L166,0 L83,0 " fill="rgb(241, 177, 193)" stroke="none" fill-rule="evenodd"></path><path d="M83,0 L0,0 L0,75 L0,150 L83,150 L166,150 L166,75 L166,0 L83,0 " fill="rgb(255, 255, 255)" stroke="none" fill-rule="evenodd"></path><path d="M98,4 C95.8,4,91.975,4.225,89.5,4.5 C87.025,4.775,78.25,5.675,70,6.5 C60.933,7.407,53.022,9.187,50,11 C47.009,12.795,44.397,15.808,43.5,18.5 C42.675,20.975,42.225,25.925,42.5,29.5 C42.868,34.288,44.185,37.185,47.5,40.5 C49.975,42.975,53.8,45.45,56,46 C58.2,46.55,62.025,46.775,64.5,46.5 C66.975,46.225,72.15,45.55,76,45 L83,44 L83.5,48.5 C83.775,50.975,83.325,53.9,82.5,55 C81.667,56.11,76.552,57,71,57 L61,57 L59.5,60.5 C58.675,62.425,57.325,64.45,56.5,65 C55.675,65.55,51.175,64.875,46.5,63.5 C41.209,61.944,37.056,59.678,35.5,57.5 C34.125,55.575,31.875,51.3,30.5,48 C29.125,44.7,27.775,41.775,27.5,41.5 C27.225,41.225,27.45,40.775,28,40.5 C28.55,40.225,29.9,38.2,31,36 C32.1,33.8,32.775,30.875,32.5,29.5 C32.225,28.125,30.875,26.55,29.5,26 C27.616,25.246,26.63,25.986,25.5,29 C24.675,31.2,22.425,33.675,20.5,34.5 C17.909,35.611,16.221,35.221,14,33 C11.989,30.989,10.341,30.494,9,31.5 C7.9,32.325,7.225,34.125,7.5,35.5 C7.775,36.875,10.025,39.35,12.5,41 C14.975,42.65,17.9,43.775,19,43.5 C20.293,43.177,22.06,45.828,24,51 C25.65,55.4,28.575,60.8,30.5,63 C32.425,65.2,36.475,67.9,39.5,69 C42.525,70.1,47.475,71.45,50.5,72 C53.525,72.55,56.225,72.775,56.5,72.5 C56.775,72.225,57.225,73.125,57.5,74.5 C57.775,75.875,57.55,79.25,57,82 C56.45,84.75,55.325,92.85,54.5,100 C53.675,107.15,53.675,113.45,54.5,114 C55.325,114.55,58.7,115.225,62,115.5 C66.673,115.889,68.111,116.664,68.5,119 C68.775,120.65,68.55,123.575,68,125.5 C67.45,127.425,65.2,130.8,63,133 C60.8,135.2,59.225,137.675,59.5,138.5 C59.775,139.325,61.8,140.45,64,141 C66.2,141.55,70.025,142.225,72.5,142.5 C74.975,142.775,78.125,142.325,79.5,141.5 C81.077,140.554,81.631,138.892,81,137 C80.45,135.35,78.875,132.425,77.5,130.5 C76.125,128.575,75,124.75,75,122 L75,117 L80,116 C82.75,115.45,86.575,115.225,88.5,115.5 L92,116 L93,122 C93.796,126.777,93.185,129.121,90,133.5 C87.8,136.525,86.225,139.675,86.5,140.5 C86.775,141.325,88.575,142.225,90.5,142.5 C92.425,142.775,97.375,142.1,101.5,141 C106.461,139.677,108.831,138.323,108.5,137 C108.225,135.9,106.2,132.75,104,130 C101.539,126.923,100,123.077,100,120 L100,115 L108,115 L116,115 L116.5,110.5 C116.775,108.025,116.55,102.4,116,98 C115.45,93.6,114.55,86.85,114,83 L113,76 L116.5,75 C118.425,74.45,122.475,73.325,125.5,72.5 C128.591,71.657,132.314,69.248,134,67 C135.65,64.8,138.35,60.075,140,56.5 C141.672,52.878,144.328,49.557,146,49 C147.65,48.45,151.025,45.975,153.5,43.5 L158,39 L155.5,37 C153.595,35.476,151.929,35.714,148.5,38 C145.203,40.198,143.599,40.465,142.5,39 C141.675,37.9,141.225,35.65,141.5,34 C141.857,31.86,141.14,30.857,139,30.5 C136.69,30.115,135.655,31.035,134.5,34.5 C133.675,36.975,133.675,40.35,134.5,42 C135.325,43.65,136.225,45.225,136.5,45.5 C136.775,45.775,135.425,49.375,133.5,53.5 C131.575,57.625,128.875,61.9,127.5,63 C126.125,64.1,122.3,65.45,119,66 L113,67 L112,63 C111.45,60.8,109.875,58.55,108.5,58 C107.125,57.45,102.85,57,99,57 L92,57 L92,50.5 L92,44 L99,43 C103.353,42.378,107.702,40.487,110.5,38 C112.975,35.8,115.45,32.425,116,30.5 C116.55,28.575,116.775,24.525,116.5,21.5 C116.225,18.475,114.875,14.425,113.5,12.5 C112.125,10.575,108.975,7.875,106.5,6.5 C104.025,5.125,100.2,4,98,4 " fill="rgb(0, 0, 0)" stroke="none" fill-rule="evenodd"></path><path d="M98,4 C95.8,4,91.975,4.225,89.5,4.5 C87.025,4.775,78.25,5.675,70,6.5 C60.933,7.407,53.022,9.187,50,11 C47.009,12.795,44.397,15.808,43.5,18.5 C42.675,20.975,42.225,25.925,42.5,29.5 C42.868,34.288,44.185,37.185,47.5,40.5 C49.975,42.975,53.8,45.45,56,46 C58.2,46.55,62.025,46.775,64.5,46.5 C66.975,46.225,72.15,45.55,76,45 L83,44 L83.5,48.5 C83.775,50.975,83.325,53.9,82.5,55 C81.667,56.11,76.552,57,71,57 L61,57 L59.5,60.5 C58.675,62.425,57.325,64.45,56.5,65 C55.675,65.55,51.175,64.875,46.5,63.5 C41.209,61.944,37.056,59.678,35.5,57.5 C34.125,55.575,31.875,51.3,30.5,48 C29.125,44.7,27.775,41.775,27.5,41.5 C27.225,41.225,27.45,40.775,28,40.5 C28.55,40.225,29.9,38.2,31,36 C32.1,33.8,32.775,30.875,32.5,29.5 C32.225,28.125,30.875,26.55,29.5,26 C27.616,25.246,26.63,25.986,25.5,29 C24.675,31.2,22.425,33.675,20.5,34.5 C17.909,35.611,16.221,35.221,14,33 C11.989,30.989,10.341,30.494,9,31.5 C7.9,32.325,7.225,34.125,7.5,35.5 C7.775,36.875,10.025,39.35,12.5,41 C14.975,42.65,17.9,43.775,19,43.5 C20.293,43.177,22.06,45.828,24,51 C25.65,55.4,28.575,60.8,30.5,63 C32.425,65.2,36.475,67.9,39.5,69 C42.525,70.1,47.475,71.45,50.5,72 C53.525,72.55,56.225,72.775,56.5,72.5 C56.775,72.225,57.225,73.125,57.5,74.5 C57.775,75.875,57.55,79.25,57,82 C56.45,84.75,55.325,92.85,54.5,100 C53.675,107.15,53.675,113.45,54.5,114 C55.325,114.55,58.7,115.225,62,115.5 C66.673,115.889,68.111,116.664,68.5,119 C68.775,120.65,68.55,123.575,68,125.5 C67.45,127.425,65.2,130.8,63,133 C60.8,135.2,59.225,137.675,59.5,138.5 C59.775,139.325,61.8,140.45,64,141 C66.2,141.55,70.025,142.225,72.5,142.5 C74.975,142.775,78.125,142.325,79.5,141.5 C81.077,140.554,81.631,138.892,81,137 C80.45,135.35,78.875,132.425,77.5,130.5 C76.125,128.575,75,124.75,75,122 L75,117 L80,116 C82.75,115.45,86.575,115.225,88.5,115.5 L92,116 L93,122 C93.796,126.777,93.185,129.121,90,133.5 C87.8,136.525,86.225,139.675,86.5,140.5 C86.775,141.325,88.575,142.225,90.5,142.5 C92.425,142.775,97.375,142.1,101.5,141 C106.461,139.677,108.831,138.323,108.5,137 C108.225,135.9,106.2,132.75,104,130 C101.539,126.923,100,123.077,100,120 L100,115 L108,115 L116,115 L116.5,110.5 C116.775,108.025,116.55,102.4,116,98 C115.45,93.6,114.55,86.85,114,83 L113,76 L116.5,75 C118.425,74.45,122.475,73.325,125.5,72.5 C128.591,71.657,132.314,69.248,134,67 C135.65,64.8,138.35,60.075,140,56.5 C141.672,52.878,144.328,49.557,146,49 C147.65,48.45,151.025,45.975,153.5,43.5 L158,39 L155.5,37 C153.595,35.476,151.929,35.714,148.5,38 C145.203,40.198,143.599,40.465,142.5,39 C141.675,37.9,141.225,35.65,141.5,34 C141.857,31.86,141.14,30.857,139,30.5 C136.69,30.115,135.655,31.035,134.5,34.5 C133.675,36.975,133.675,40.35,134.5,42 C135.325,43.65,136.225,45.225,136.5,45.5 C136.775,45.775,135.425,49.375,133.5,53.5 C131.575,57.625,128.875,61.9,127.5,63 C126.125,64.1,122.3,65.45,119,66 L113,67 L112,63 C111.45,60.8,109.875,58.55,108.5,58 C107.125,57.45,102.85,57,99,57 L92,57 L92,50.5 L92,44 L99,43 C103.353,42.378,107.702,40.487,110.5,38 C112.975,35.8,115.45,32.425,116,30.5 C116.55,28.575,116.775,24.525,116.5,21.5 C116.225,18.475,114.875,14.425,113.5,12.5 C112.125,10.575,108.975,7.875,106.5,6.5 C104.025,5.125,100.2,4,98,4 M94,10 C95.1,10,98.25,10.45,101,11 C103.75,11.55,106.9,13.125,108,14.5 C109.1,15.875,110,19.925,110,23.5 C110,27.075,108.875,31.35,107.5,33 C105.909,34.91,102.092,36.363,97,37 C92.6,37.55,84.95,38.45,80,39 C75.05,39.55,67.85,40,64,40 C60.15,40,55.425,39.1,53.5,38 C51.575,36.9,49.55,34.2,49,32 C48.45,29.8,48.225,26.2,48.5,24 C48.775,21.8,50.35,18.65,52,17 C53.941,15.059,58.353,13.647,64.5,13 C69.725,12.45,78.05,11.55,83,11 C87.95,10.45,92.9,10,94,10 M94,13.5 C91.25,13.225,87.65,14.125,86,15.5 C84.35,16.875,82.775,20.025,82.5,22.5 C82.185,25.338,83.108,28.108,85,30 C86.65,31.65,89.35,33.225,91,33.5 C92.65,33.775,95.35,33.55,97,33 C98.65,32.45,100.675,30.875,101.5,29.5 C102.325,28.125,103.225,25.425,103.5,23.5 C103.775,21.575,102.875,18.65,101.5,17 C100.125,15.35,96.75,13.775,94,13.5 M65,16 C63.35,16,60.65,17.35,59,19 C57.35,20.65,55.775,23.35,55.5,25 C55.225,26.65,55.9,29.575,57,31.5 C58.1,33.425,60.8,35.45,63,36 C65.2,36.55,68.35,36.55,70,36 C71.65,35.45,73.9,33.425,75,31.5 C76.1,29.575,76.775,26.2,76.5,24 C76.167,21.333,74.667,19.333,72,18 C69.8,16.9,66.65,16,65,16 M94.5,19.5 C96.923,20.539,97.846,21.923,97.5,24 C97.179,25.926,95.747,27.179,93.5,27.5 C91.017,27.855,89.709,27.128,89,25 C88.45,23.35,88.675,21.1,89.5,20 C90.414,18.782,92.368,18.586,94.5,19.5 M66.5,21 C66.775,21,68.125,22.125,69.5,23.5 C70.875,24.875,71.55,26.9,71,28 C70.45,29.1,69.1,30.225,68,30.5 C66.9,30.775,64.875,30.325,63.5,29.5 C62.125,28.675,61.225,27.1,61.5,26 C61.775,24.9,62.9,23.325,64,22.5 C65.1,21.675,66.225,21,66.5,21 M81.5,62 C82.875,62,86.025,62.225,88.5,62.5 C90.975,62.775,95.25,63,98,63 L103,63 L104,71 C104.55,75.4,104.55,79.675,104,80.5 C103.45,81.325,98.95,82,94,82 C89.05,82,80.725,81.775,75.5,81.5 L66,81 L66.5,73 C66.775,68.6,67.675,64.55,68.5,64 C69.325,63.45,72.025,62.775,74.5,62.5 C76.975,62.225,80.125,62,81.5,62 M84,66 C77.95,66,72.55,66.675,72,67.5 C71.45,68.325,70.775,70.8,70.5,73 L70,77 L79.5,77.5 C84.725,77.775,91.25,77.775,94,77.5 L99,77 L99.5,72.5 C99.835,69.488,99.173,67.669,97.5,67 C96.125,66.45,90.05,66,84,66 " fill="rgb(246, 146, 146)" stroke="none" fill-rule="evenodd"></path><path d="M98,4 C95.8,4,91.975,4.225,89.5,4.5 C87.025,4.775,78.25,5.675,70,6.5 C60.933,7.407,53.022,9.187,50,11 C47.009,12.795,44.397,15.808,43.5,18.5 C42.675,20.975,42.225,25.925,42.5,29.5 C42.868,34.288,44.185,37.185,47.5,40.5 C49.975,42.975,53.8,45.45,56,46 C58.2,46.55,62.025,46.775,64.5,46.5 C66.975,46.225,72.15,45.55,76,45 L83,44 L83.5,48.5 C83.775,50.975,83.325,53.9,82.5,55 C81.667,56.11,76.552,57,71,57 L61,57 L59.5,60.5 C58.675,62.425,57.325,64.45,56.5,65 C55.675,65.55,51.175,64.875,46.5,63.5 C41.209,61.944,37.056,59.678,35.5,57.5 C34.125,55.575,31.875,51.3,30.5,48 C29.125,44.7,27.775,41.775,27.5,41.5 C27.225,41.225,27.45,40.775,28,40.5 C28.55,40.225,29.9,38.2,31,36 C32.1,33.8,32.775,30.875,32.5,29.5 C32.225,28.125,30.875,26.55,29.5,26 C27.616,25.246,26.63,25.986,25.5,29 C24.675,31.2,22.425,33.675,20.5,34.5 C17.909,35.611,16.221,35.221,14,33 C11.989,30.989,10.341,30.494,9,31.5 C7.9,32.325,7.225,34.125,7.5,35.5 C7.775,36.875,10.025,39.35,12.5,41 C14.975,42.65,17.9,43.775,19,43.5 C20.293,43.177,22.06,45.828,24,51 C25.65,55.4,28.575,60.8,30.5,63 C32.425,65.2,36.475,67.9,39.5,69 C42.525,70.1,47.475,71.45,50.5,72 C53.525,72.55,56.225,72.775,56.5,72.5 C56.775,72.225,57.225,73.125,57.5,74.5 C57.775,75.875,57.55,79.25,57,82 C56.45,84.75,55.325,92.85,54.5,100 C53.675,107.15,53.675,113.45,54.5,114 C55.325,114.55,58.7,115.225,62,115.5 C66.673,115.889,68.111,116.664,68.5,119 C68.775,120.65,68.55,123.575,68,125.5 C67.45,127.425,65.2,130.8,63,133 C60.8,135.2,59.225,137.675,59.5,138.5 C59.775,139.325,61.8,140.45,64,141 C66.2,141.55,70.025,142.225,72.5,142.5 C74.975,142.775,78.125,142.325,79.5,141.5 C81.077,140.554,81.631,138.892,81,137 C80.45,135.35,78.875,132.425,77.5,130.5 C76.125,128.575,75,124.75,75,122 L75,117 L80,116 C82.75,115.45,86.575,115.225,88.5,115.5 L92,116 L93,122 C93.796,126.777,93.185,129.121,90,133.5 C87.8,136.525,86.225,139.675,86.5,140.5 C86.775,141.325,88.575,142.225,90.5,142.5 C92.425,142.775,97.375,142.1,101.5,141 C106.461,139.677,108.831,138.323,108.5,137 C108.225,135.9,106.2,132.75,104,130 C101.539,126.923,100,123.077,100,120 L100,115 L108,115 L116,115 L116.5,110.5 C116.775,108.025,116.55,102.4,116,98 C115.45,93.6,114.55,86.85,114,83 L113,76 L116.5,75 C118.425,74.45,122.475,73.325,125.5,72.5 C128.591,71.657,132.314,69.248,134,67 C135.65,64.8,138.35,60.075,140,56.5 C141.672,52.878,144.328,49.557,146,49 C147.65,48.45,151.025,45.975,153.5,43.5 L158,39 L155.5,37 C153.595,35.476,151.929,35.714,148.5,38 C145.203,40.198,143.599,40.465,142.5,39 C141.675,37.9,141.225,35.65,141.5,34 C141.857,31.86,141.14,30.857,139,30.5 C136.69,30.115,135.655,31.035,134.5,34.5 C133.675,36.975,133.675,40.35,134.5,42 C135.325,43.65,136.225,45.225,136.5,45.5 C136.775,45.775,135.425,49.375,133.5,53.5 C131.575,57.625,128.875,61.9,127.5,63 C126.125,64.1,122.3,65.45,119,66 L113,67 L112,63 C111.45,60.8,109.875,58.55,108.5,58 C107.125,57.45,102.85,57,99,57 L92,57 L92,50.5 L92,44 L99,43 C103.353,42.378,107.702,40.487,110.5,38 C112.975,35.8,115.45,32.425,116,30.5 C116.55,28.575,116.775,24.525,116.5,21.5 C116.225,18.475,114.875,14.425,113.5,12.5 C112.125,10.575,108.975,7.875,106.5,6.5 C104.025,5.125,100.2,4,98,4 M94,10 C95.1,10,98.25,10.45,101,11 C103.75,11.55,106.9,13.125,108,14.5 C109.1,15.875,110,19.925,110,23.5 C110,27.075,108.875,31.35,107.5,33 C105.909,34.91,102.092,36.363,97,37 C92.6,37.55,84.95,38.45,80,39 C75.05,39.55,67.85,40,64,40 C60.15,40,55.425,39.1,53.5,38 C51.575,36.9,49.55,34.2,49,32 C48.45,29.8,48.225,26.2,48.5,24 C48.775,21.8,50.35,18.65,52,17 C53.941,15.059,58.353,13.647,64.5,13 C69.725,12.45,78.05,11.55,83,11 C87.95,10.45,92.9,10,94,10 M81.5,62 C82.875,62,86.025,62.225,88.5,62.5 C90.975,62.775,95.25,63,98,63 L103,63 L104,71 C104.55,75.4,104.55,79.675,104,80.5 C103.45,81.325,98.95,82,94,82 C89.05,82,80.725,81.775,75.5,81.5 L66,81 L66.5,73 C66.775,68.6,67.675,64.55,68.5,64 C69.325,63.45,72.025,62.775,74.5,62.5 C76.975,62.225,80.125,62,81.5,62 M84,66 C77.95,66,72.55,66.675,72,67.5 C71.45,68.325,70.775,70.8,70.5,73 L70,77 L79.5,77.5 C84.725,77.775,91.25,77.775,94,77.5 L99,77 L99.5,72.5 C99.835,69.488,99.173,67.669,97.5,67 C96.125,66.45,90.05,66,84,66 " fill="rgb(245, 240, 157)" stroke="none" fill-rule="evenodd"></path><path d="M98,4 C95.8,4,91.975,4.225,89.5,4.5 C87.025,4.775,78.25,5.675,70,6.5 C60.933,7.407,53.022,9.187,50,11 C47.009,12.795,44.397,15.808,43.5,18.5 C42.675,20.975,42.225,25.925,42.5,29.5 C42.868,34.288,44.185,37.185,47.5,40.5 C49.975,42.975,53.8,45.45,56,46 C58.2,46.55,62.025,46.775,64.5,46.5 C66.975,46.225,72.15,45.55,76,45 L83,44 L83.5,48.5 C83.775,50.975,83.325,53.9,82.5,55 C81.667,56.11,76.552,57,71,57 L61,57 L59.5,60.5 C58.675,62.425,57.325,64.45,56.5,65 C55.675,65.55,51.175,64.875,46.5,63.5 C41.209,61.944,37.056,59.678,35.5,57.5 C34.125,55.575,31.875,51.3,30.5,48 C29.125,44.7,27.775,41.775,27.5,41.5 C27.225,41.225,27.45,40.775,28,40.5 C28.55,40.225,29.9,38.2,31,36 C32.1,33.8,32.775,30.875,32.5,29.5 C32.225,28.125,30.875,26.55,29.5,26 C27.616,25.246,26.63,25.986,25.5,29 C24.675,31.2,22.425,33.675,20.5,34.5 C17.909,35.611,16.221,35.221,14,33 C11.989,30.989,10.341,30.494,9,31.5 C7.9,32.325,7.225,34.125,7.5,35.5 C7.775,36.875,10.025,39.35,12.5,41 C14.975,42.65,17.9,43.775,19,43.5 C20.293,43.177,22.06,45.828,24,51 C25.65,55.4,28.575,60.8,30.5,63 C32.425,65.2,36.475,67.9,39.5,69 C42.525,70.1,47.475,71.45,50.5,72 C53.525,72.55,56.225,72.775,56.5,72.5 C56.775,72.225,57.225,73.125,57.5,74.5 C57.775,75.875,57.55,79.25,57,82 C56.45,84.75,55.325,92.85,54.5,100 C53.675,107.15,53.675,113.45,54.5,114 C55.325,114.55,58.7,115.225,62,115.5 C66.673,115.889,68.111,116.664,68.5,119 C68.775,120.65,68.55,123.575,68,125.5 C67.45,127.425,65.2,130.8,63,133 C60.8,135.2,59.225,137.675,59.5,138.5 C59.775,139.325,61.8,140.45,64,141 C66.2,141.55,70.025,142.225,72.5,142.5 C74.975,142.775,78.125,142.325,79.5,141.5 C81.077,140.554,81.631,138.892,81,137 C80.45,135.35,78.875,132.425,77.5,130.5 C76.125,128.575,75,124.75,75,122 L75,117 L80,116 C82.75,115.45,86.575,115.225,88.5,115.5 L92,116 L93,122 C93.796,126.777,93.185,129.121,90,133.5 C87.8,136.525,86.225,139.675,86.5,140.5 C86.775,141.325,88.575,142.225,90.5,142.5 C92.425,142.775,97.375,142.1,101.5,141 C106.461,139.677,108.831,138.323,108.5,137 C108.225,135.9,106.2,132.75,104,130 C101.539,126.923,100,123.077,100,120 L100,115 L108,115 L116,115 L116.5,110.5 C116.775,108.025,116.55,102.4,116,98 C115.45,93.6,114.55,86.85,114,83 L113,76 L116.5,75 C118.425,74.45,122.475,73.325,125.5,72.5 C128.591,71.657,132.314,69.248,134,67 C135.65,64.8,138.35,60.075,140,56.5 C141.672,52.878,144.328,49.557,146,49 C147.65,48.45,151.025,45.975,153.5,43.5 L158,39 L155.5,37 C153.595,35.476,151.929,35.714,148.5,38 C145.203,40.198,143.599,40.465,142.5,39 C141.675,37.9,141.225,35.65,141.5,34 C141.857,31.86,141.14,30.857,139,30.5 C136.69,30.115,135.655,31.035,134.5,34.5 C133.675,36.975,133.675,40.35,134.5,42 C135.325,43.65,136.225,45.225,136.5,45.5 C136.775,45.775,135.425,49.375,133.5,53.5 C131.575,57.625,128.875,61.9,127.5,63 C126.125,64.1,122.3,65.45,119,66 L113,67 L112,63 C111.45,60.8,109.875,58.55,108.5,58 C107.125,57.45,102.85,57,99,57 L92,57 L92,50.5 L92,44 L99,43 C103.353,42.378,107.702,40.487,110.5,38 C112.975,35.8,115.45,32.425,116,30.5 C116.55,28.575,116.775,24.525,116.5,21.5 C116.225,18.475,114.875,14.425,113.5,12.5 C112.125,10.575,108.975,7.875,106.5,6.5 C104.025,5.125,100.2,4,98,4 M94,10 C95.1,10,98.25,10.45,101,11 C103.75,11.55,106.9,13.125,108,14.5 C109.1,15.875,110,19.925,110,23.5 C110,27.075,108.875,31.35,107.5,33 C105.909,34.91,102.092,36.363,97,37 C92.6,37.55,84.95,38.45,80,39 C75.05,39.55,67.85,40,64,40 C60.15,40,55.425,39.1,53.5,38 C51.575,36.9,49.55,34.2,49,32 C48.45,29.8,48.225,26.2,48.5,24 C48.775,21.8,50.35,18.65,52,17 C53.941,15.059,58.353,13.647,64.5,13 C69.725,12.45,78.05,11.55,83,11 C87.95,10.45,92.9,10,94,10 M81.5,62 C82.875,62,86.025,62.225,88.5,62.5 C90.975,62.775,95.25,63,98,63 L103,63 L104,71 C104.55,75.4,104.55,79.675,104,80.5 C103.45,81.325,98.95,82,94,82 C89.05,82,80.725,81.775,75.5,81.5 L66,81 L66.5,73 C66.775,68.6,67.675,64.55,68.5,64 C69.325,63.45,72.025,62.775,74.5,62.5 C76.975,62.225,80.125,62,81.5,62 " fill="rgb(87, 205, 241)" stroke="none" fill-rule="evenodd"></path></svg>